<svg id="visual" viewBox="0 0 900 600" width="900" height="600" xmlns="http://www.w3.org/2000/svg" xmlns:xlink="http://www.w3.org/1999/xlink" version="1.1"><rect x="0" y="0" width="900" height="600" fill="#004689"></rect><defs><linearGradient id="grad1_0" x1="33.3%" y1="0%" x2="100%" y2="100%"><stop offset="20%" stop-color="#0276c1" stop-opacity="1"></stop><stop offset="80%" stop-color="#0276c1" stop-opacity="1"></stop></linearGradient></defs><defs><linearGradient id="grad1_1" x1="33.3%" y1="0%" x2="100%" y2="100%"><stop offset="20%" stop-color="#0276c1" stop-opacity="1"></stop><stop offset="80%" stop-color="#0266ae" stop-opacity="1"></stop></linearGradient></defs><defs><linearGradient id="grad1_2" x1="33.3%" y1="0%" x2="100%" y2="100%"><stop offset="20%" stop-color="#02559c" stop-opacity="1"></stop><stop offset="80%" stop-color="#0266ae" stop-opacity="1"></stop></linearGradient></defs><defs><linearGradient id="grad1_3" x1="33.3%" y1="0%" x2="100%" y2="100%"><stop offset="20%" stop-color="#02559c" stop-opacity="1"></stop><stop offset="80%" stop-color="#004689" stop-opacity="1"></stop></linearGradient></defs><defs><linearGradient id="grad2_0" x1="0%" y1="0%" x2="66.7%" y2="100%"><stop offset="20%" stop-color="#0276c1" stop-opacity="1"></stop><stop offset="80%" stop-color="#0276c1" stop-opacity="1"></stop></linearGradient></defs><defs><linearGradient id="grad2_1" x1="0%" y1="0%" x2="66.7%" y2="100%"><stop offset="20%" stop-color="#0266ae" stop-opacity="1"></stop><stop offset="80%" stop-color="#0276c1" stop-opacity="1"></stop></linearGradient></defs><defs><linearGradient id="grad2_2" x1="0%" y1="0%" x2="66.7%" y2="100%"><stop offset="20%" stop-color="#0266ae" stop-opacity="1"></stop><stop offset="80%" stop-color="#02559c" stop-opacity="1"></stop></linearGradient></defs><defs><linearGradient id="grad2_3" x1="0%" y1="0%" x2="66.7%" y2="100%"><stop offset="20%" stop-color="#004689" stop-opacity="1"></stop><stop offset="80%" stop-color="#02559c" stop-opacity="1"></stop></linearGradient></defs><g transform="translate(900, 0)"><path d="M0 459.7C-75.5 440 -151.1 420.4 -222 384.5C-292.9 348.7 -359.3 296.6 -398.1 229.9C-437 163.1 -448.3 81.5 -459.7 0L0 0Z" fill="#014e92"></path><path d="M0 344.8C-56.6 330 -113.3 315.3 -166.5 288.4C-219.7 261.5 -269.5 222.5 -298.6 172.4C-327.7 122.3 -336.3 61.2 -344.8 0L0 0Z" fill="#025da5"></path><path d="M0 229.9C-37.8 220 -75.5 210.2 -111 192.3C-146.5 174.3 -179.6 148.3 -199.1 114.9C-218.5 81.5 -224.2 40.8 -229.9 0L0 0Z" fill="#026eb8"></path><path d="M0 114.9C-18.9 110 -37.8 105.1 -55.5 96.1C-73.2 87.2 -89.8 74.2 -99.5 57.5C-109.2 40.8 -112.1 20.4 -114.9 0L0 0Z" fill="#0276c1"></path></g><g transform="translate(0, 600)"><path d="M0 -459.7C76.3 -441.4 152.7 -423.1 223.5 -387.1C294.3 -351.1 359.7 -297.3 398.1 -229.9C436.6 -162.4 448.1 -81.2 459.7 0L0 0Z" fill="#014e92"></path><path d="M0 -344.8C57.2 -331.1 114.5 -317.4 167.6 -290.3C220.8 -263.3 269.8 -223 298.6 -172.4C327.4 -121.8 336.1 -60.9 344.8 0L0 0Z" fill="#025da5"></path><path d="M0 -229.9C38.2 -220.7 76.3 -211.6 111.7 -193.6C147.2 -175.5 179.8 -148.7 199.1 -114.9C218.3 -81.2 224.1 -40.6 229.9 0L0 0Z" fill="#026eb8"></path><path d="M0 -114.9C19.1 -110.4 38.2 -105.8 55.9 -96.8C73.6 -87.8 89.9 -74.3 99.5 -57.5C109.1 -40.6 112 -20.3 114.9 0L0 0Z" fill="#0276c1"></path></g></svg>